<svg width="300" height="300" xmlns="http://www.w3.org/2000/svg">
  <rect width="300" height="300" fill="white"/>
  <rect x="30" y="30" width="240" height="240" fill="none" stroke="black" stroke-width="2"/>
  
  <!-- QR code pattern simulation -->
  <rect x="40" y="40" width="20" height="20" fill="black"/>
  <rect x="60" y="40" width="20" height="20" fill="black"/>
  <rect x="80" y="40" width="20" height="20" fill="black"/>
  <rect x="100" y="40" width="20" height="20" fill="black"/>
  <rect x="120" y="40" width="20" height="20" fill="black"/>
  <rect x="140" y="40" width="20" height="20" fill="black"/>
  <rect x="160" y="40" width="20" height="20" fill="black"/>
  
  <rect x="40" y="60" width="20" height="20" fill="black"/>
  <rect x="160" y="60" width="20" height="20" fill="black"/>
  
  <rect x="40" y="80" width="20" height="20" fill="black"/>
  <rect x="80" y="80" width="20" height="20" fill="black"/>
  <rect x="100" y="80" width="20" height="20" fill="black"/>
  <rect x="120" y="80" width="20" height="20" fill="black"/>
  <rect x="160" y="80" width="20" height="20" fill="black"/>
  
  <rect x="40" y="100" width="20" height="20" fill="black"/>
  <rect x="80" y="100" width="20" height="20" fill="black"/>
  <rect x="100" y="100" width="20" height="20" fill="black"/>
  <rect x="120" y="100" width="20" height="20" fill="black"/>
  <rect x="160" y="100" width="20" height="20" fill="black"/>
  
  <rect x="40" y="120" width="20" height="20" fill="black"/>
  <rect x="80" y="120" width="20" height="20" fill="black"/>
  <rect x="100" y="120" width="20" height="20" fill="black"/>
  <rect x="120" y="120" width="20" height="20" fill="black"/>
  <rect x="160" y="120" width="20" height="20" fill="black"/>
  
  <rect x="40" y="140" width="20" height="20" fill="black"/>
  <rect x="160" y="140" width="20" height="20" fill="black"/>
  
  <rect x="40" y="160" width="20" height="20" fill="black"/>
  <rect x="60" y="160" width="20" height="20" fill="black"/>
  <rect x="80" y="160" width="20" height="20" fill="black"/>
  <rect x="100" y="160" width="20" height="20" fill="black"/>
  <rect x="120" y="160" width="20" height="20" fill="black"/>
  <rect x="140" y="160" width="20" height="20" fill="black"/>
  <rect x="160" y="160" width="20" height="20" fill="black"/>
  
  <!-- Add more pattern -->
  <rect x="200" y="40" width="20" height="20" fill="black"/>
  <rect x="220" y="40" width="20" height="20" fill="black"/>
  <rect x="240" y="40" width="20" height="20" fill="black"/>
  
  <rect x="200" y="60" width="20" height="20" fill="black"/>
  <rect x="240" y="60" width="20" height="20" fill="black"/>
  
  <rect x="200" y="80" width="20" height="20" fill="black"/>
  <rect x="220" y="80" width="20" height="20" fill="black"/>
  <rect x="240" y="80" width="20" height="20" fill="black"/>
  
  <text x="150" y="280" font-family="Arial" font-size="14" text-anchor="middle" fill="black">
    PLACEHOLDER - Replace with your UPI QR
  </text>
</svg>
